<?xml version="1.0" encoding="utf-8"?>
<!-- Generator: Adobe Illustrator 25.1.0, SVG Export Plug-In . SVG Version: 6.00 Build 0)  -->
<svg version="1.1" xmlns="http://www.w3.org/2000/svg" xmlns:xlink="http://www.w3.org/1999/xlink" x="0px" y="0px"
	 viewBox="0 0 109.8 116.6" style="enable-background:new 0 0 109.8 116.6;" xml:space="preserve">
<style type="text/css">
	.st0{fill:#0A0A0A;}
	.st1{fill:#FFFFFF;}
	.st2{fill:#FE9D00;}
</style>
<g id="Capa_2">
</g>
<g id="Capa_1">
	<g>
		<path class="st2" d="M50.9,97.8c0,6.4,0.5,14.7,0.7,18.8c-3.8-0.5-6.8-0.8-10.3-0.8c-3.3,0-6.9,0.4-10.3,0.8
			c0.6-11.1,0.8-22.8,0.8-33.3c0-20.8-0.1-24.2-0.7-39.9c3.3,0.4,6.7,0.8,10,0.8c3.1,0,6.1-0.3,9.1-0.8l-0.4,5.7
			c3.6-3.9,7.1-5.9,12.5-5.9c13.6,0,21.2,11.7,21.2,24.4c0,12.2-7,25.1-20.5,25.1c-5.5,0-9-1.2-12.2-5V97.8z M56.9,84.6
			c4.4,0,6.2-4.5,6.2-15.8c0-7,0-17.3-6.2-17.3c-6,0-6.3,9.7-6.3,16.4C50.5,81.2,53,84.6,56.9,84.6z"/>
		<path class="st2" d="M100.1,94.3c-5.3,0-9.6-4.4-9.6-9.6c0-5.2,4.4-9.6,9.6-9.6c5.3,0,9.6,4.5,9.6,9.6
			C109.8,89.9,105.4,94.3,100.1,94.3z"/>
		<path class="st2" d="M0.8,22.3C0.8,14.9,0.6,11.4,0,0c3.4,0.7,7,0.8,10.4,0.8c3.5,0,7-0.2,10.4-0.8c-0.3,7.2-0.6,16-0.6,24.3v23.1
			c0,7.6,0.4,17.8,0.6,23.1c-3.3-0.5-6.8-0.8-10.2-0.8c-3.4,0-7,0.5-10.5,0.8C0.4,64.6,0.8,58,0.8,51.7V22.3z"/>
		<path class="st2" d="M14.2,79.9c2.2,0,3.2,0,6.6-0.2c-0.2,0.9-0.2,1.7-0.2,2.6c0,0.9,0.1,1.7,0.2,2.6c-2.1-0.1-4.7-0.2-7.2-0.2
			H6.8c-2.2,0-5.2,0.1-6.8,0.1c0.1-0.8,0.2-1.7,0.2-2.6S0.1,80.5,0,79.7c1.7,0.1,3.7,0.2,5.5,0.2H14.2z"/>
		<path class="st2" d="M102.5,1.1L102.5,1.1l0-1.1h-5.3v0C88,0.2,84.6,0.2,78,0.2H49.4c-6.1,0-12.6-0.1-18.3-0.2
			c0.4,0.9,0.8,1.8,0.8,2.7c0,0.9-0.4,1.7-0.8,2.6c5.1,0,15.1-0.1,22.5-0.1H76c7.3,0,14.9,0.1,21.5,0.1c0,5.4,0.1,12.3,0.1,17.8
			v23.1c0,8.3-0.1,17.1-0.2,24.3c0.8-0.7,1.7-0.8,2.6-0.8c0.8,0,1.7,0.2,2.6,0.8c-0.2-11.4-0.2-14.9-0.2-22.3V18.8
			C102.3,12.9,102.4,6.7,102.5,1.1z"/>
	</g>
</g>
</svg>
