<?xml version="1.0" encoding="utf-8"?>
<!-- Generator: Adobe Illustrator 16.0.0, SVG Export Plug-In . SVG Version: 6.00 Build 0)  -->
<!DOCTYPE svg PUBLIC "-//W3C//DTD SVG 1.1//EN" "http://www.w3.org/Graphics/SVG/1.1/DTD/svg11.dtd">
<svg version="1.1" xmlns="http://www.w3.org/2000/svg" xmlns:xlink="http://www.w3.org/1999/xlink" x="0px" y="0px" width="240px"
	 height="62.748px" viewBox="0 0 240 62.748" enable-background="new 0 0 240 62.748" xml:space="preserve">
<g id="Capa_2">
</g>
<g id="Capa_1">
	<g>
		<path fill="#FFFFFF" d="M72.609,11.978c0-3.032-0.076-4.491-0.346-9.212c1.42,0.27,2.879,0.346,4.3,0.346
			c1.459,0,2.878-0.076,4.298-0.346c-0.114,2.994-0.268,6.603-0.268,10.057v9.557c0,3.147,0.153,7.369,0.229,9.557
			c-1.382-0.191-2.801-0.345-4.223-0.345c-1.419,0-2.917,0.192-4.337,0.345c0.153-2.419,0.346-5.182,0.346-7.792V11.978z"/>
		<path fill="#FFFFFF" d="M78.146,35.823c0.893,0,1.323-0.02,2.715-0.087c-0.079,0.354-0.102,0.72-0.102,1.075
			c0,0.364,0.022,0.72,0.102,1.074c-0.882-0.028-1.946-0.066-2.963-0.066h-2.817c-0.929,0-2.173,0.038-2.817,0.057
			c0.058-0.345,0.102-0.701,0.102-1.055c0-0.355-0.056-0.73-0.102-1.084c0.713,0.039,1.527,0.087,2.297,0.087H78.146z"/>
		<path fill="#FFFFFF" d="M90.995,26.217c3.569-0.959,4.184-1.189,4.184-2.61c0-2.188-1.458-2.61-3.339-2.61
			c-1.688,0-3.377,0.538-4.223,2.073l-1.113-0.077l-0.768-3.416c2.764-1.458,5.259-2.188,8.405-2.188
			c5.836,0,8.445,2.802,8.445,6.104c0,2.034-0.192,5.642-0.192,7.523c0,1.841,0,3.3,1.344,3.3c0.46,0,0.959-0.192,1.42-0.421
			c-0.039,0.383-0.115,0.767-0.115,1.151c0,0.346,0.076,0.691,0.115,1.036c-1.42,1.075-3.569,1.804-5.221,1.804
			c-2.495,0-3.607-1.074-4.413-2.111c-1.383,1.305-3.455,2.111-5.373,2.111c-3.532,0-6.142-1.65-6.142-5.373
			C84.01,28.444,86.965,27.292,90.995,26.217z M93.222,34.163c1.15,0,1.842-0.73,1.842-1.766v-4.912
			c-2.994,1.074-3.454,1.803-3.454,4.182C91.609,32.973,91.955,34.163,93.222,34.163z"/>
		<path fill="#FFFFFF" d="M116.828,29.672c1.535-4.606,2.341-7.485,3.646-12.167c0.806,0.192,1.612,0.345,2.456,0.345
			c0.845,0,1.651-0.116,2.495-0.345c-2.802,6.64-5.373,13.28-7.6,20.113c-0.997-0.192-1.996-0.346-2.994-0.346
			c-1.113,0-2.188,0.154-3.302,0.346c-0.346-1.229-0.729-2.419-1.111-3.647c-1.152-3.723-2.61-7.331-3.954-10.938
			c-0.69-1.842-1.497-3.685-2.227-5.527c1.536,0.269,3.225,0.345,4.722,0.345c1.535,0,3.109-0.076,4.683-0.345
			c0.882,3.455,1.728,6.909,2.687,10.363L116.828,29.672z"/>
		<path fill="#FFFFFF" d="M132.986,26.217c3.57-0.959,4.184-1.189,4.184-2.61c0-2.188-1.459-2.61-3.338-2.61
			c-1.69,0-3.379,0.538-4.223,2.073l-1.113-0.077l-0.768-3.416c2.764-1.458,5.258-2.188,8.406-2.188
			c5.833,0,8.444,2.802,8.444,6.104c0,2.034-0.193,5.642-0.193,7.523c0,1.841,0,3.3,1.344,3.3c0.461,0,0.96-0.192,1.421-0.421
			c-0.039,0.383-0.116,0.767-0.116,1.151c0,0.346,0.077,0.691,0.116,1.036c-1.421,1.075-3.57,1.804-5.221,1.804
			c-2.495,0-3.607-1.074-4.414-2.111c-1.381,1.305-3.454,2.111-5.374,2.111c-3.53,0-6.141-1.65-6.141-5.373
			C126.001,28.444,128.957,27.292,132.986,26.217z M135.213,34.163c1.151,0,1.843-0.73,1.843-1.766v-4.912
			c-2.994,1.074-3.455,1.803-3.455,4.182C133.601,32.973,133.946,34.163,135.213,34.163z"/>
		<path fill="#FFFFFF" d="M156.669,39.997c0,2.648,0.192,6.103,0.308,7.792c-1.573-0.192-2.803-0.345-4.262-0.345
			c-1.381,0-2.84,0.153-4.26,0.345c0.27-4.606,0.346-9.442,0.346-13.779c0-8.598-0.038-10.019-0.307-16.505
			c1.381,0.154,2.764,0.345,4.145,0.345c1.268,0,2.534-0.116,3.762-0.345l-0.154,2.341c1.498-1.611,2.957-2.457,5.182-2.457
			c5.643,0,8.791,4.837,8.791,10.097c0,5.065-2.879,10.4-8.483,10.4c-2.265,0-3.724-0.499-5.066-2.073V39.997z M159.125,34.547
			c1.805,0,2.572-1.842,2.572-6.525c0-2.879,0-7.177-2.572-7.177c-2.494,0-2.609,4.03-2.609,6.793
			C156.516,33.126,157.552,34.547,159.125,34.547z"/>
		<path fill="#FFFFFF" d="M195.398,27.522c0,6.832-4.99,10.249-11.322,10.249c-6.564,0-11.247-3.301-11.247-10.21
			c0-6.679,5.144-10.211,11.361-10.211C191.598,17.351,195.398,21.995,195.398,27.522z M184.113,19.884
			c-2.379,0-2.609,3.148-2.609,7.37c0,3.915,0.038,7.983,2.609,7.983c2.572,0,2.609-3.685,2.609-7.676
			C186.723,23.646,186.646,19.884,184.113,19.884z"/>
		<path fill="#FFFFFF" d="M205.992,22.725h0.153c0.653-2.457,2.804-5.336,6.026-5.336c0.652,0,1.037,0.04,1.65,0.271
			c-0.46,2.647-0.537,3.8-0.537,7.023l-0.5,0.269c-0.844-0.768-1.726-0.999-2.839-0.999c-3.07,0-3.454,2.073-3.454,4.644
			c0,3.033,0.115,6.026,0.307,9.021c-1.497-0.192-2.994-0.346-4.491-0.346c-1.382,0-2.765,0.192-4.145,0.346
			c0.422-2.496,0.422-6.718,0.422-9.788c0-5.104-0.077-6.256-0.308-10.325c1.574,0.269,2.841,0.345,4.223,0.345
			c1.343,0,2.495-0.076,3.799-0.345L205.992,22.725z"/>
		<path fill="#FFFFFF" d="M226.158,32.358c0,1.458,0.806,2.343,2.303,2.343c0.651,0,1.266-0.192,1.881-0.462
			c-0.116,0.462-0.154,0.807-0.154,1.19c0,0.538,0.076,0.883,0.154,1.305c-1.881,0.652-3.877,1.189-5.874,1.189
			c-4.376,0-6.37-2.264-6.37-6.294c0-1.843,0.152-3.838,0.152-5.719v-5.106c-1.036,0-2.034,0.078-3.031,0.155
			c0.037-0.346,0.19-0.959,0.19-1.459c0-0.46-0.076-1.112-0.19-1.496c0.806,0.076,2.187,0.153,3.031,0.153v-4.99
			c2.648-1.074,5.336-2.379,7.716-4.03l0.69,0.461c-0.385,2.379-0.498,6.947-0.498,8.559c1.266,0,2.417-0.077,3.454-0.153
			c-0.077,0.498-0.154,0.883-0.154,1.496c0,0.5,0.116,1.037,0.154,1.459c-1.151-0.115-2.304-0.155-3.454-0.155V32.358z"/>
		<path fill="#FFFFFF" d="M236.009,37.963c-2.187,0-3.991-1.805-3.991-3.992c0-2.149,1.805-3.992,3.991-3.992
			c2.188,0,3.991,1.842,3.991,3.992C240,36.158,238.196,37.963,236.009,37.963z"/>
		<g>
			<path fill="#FFFFFF" d="M27.396,52.618c0,3.443,0.249,7.935,0.398,10.13c-2.047-0.249-3.643-0.449-5.539-0.449
				c-1.796,0-3.691,0.2-5.538,0.449c0.35-5.988,0.449-12.275,0.449-17.913c0-11.178-0.051-13.024-0.399-21.457
				c1.797,0.2,3.593,0.449,5.389,0.449c1.646,0,3.293-0.15,4.891-0.449l-0.2,3.044c1.946-2.096,3.843-3.194,6.737-3.194
				c7.334,0,11.427,6.289,11.427,13.124c0,6.586-3.743,13.523-11.028,13.523c-2.943,0-4.84-0.649-6.586-2.695V52.618z M30.59,45.533
				c2.345,0,3.343-2.396,3.343-8.482c0-3.743,0-9.332-3.343-9.332c-3.244,0-3.395,5.24-3.395,8.833
				C27.195,43.688,28.543,45.533,30.59,45.533z"/>
			<path fill="#FFFFFF" d="M53.887,50.723c-2.845,0-5.189-2.346-5.189-5.19c0-2.794,2.345-5.19,5.189-5.19
				c2.844,0,5.189,2.396,5.189,5.19C59.076,48.377,56.73,50.723,53.887,50.723z"/>
			<path fill="#FFFFFF" d="M0.45,11.977C0.45,8.034,0.351,6.138,0,0c1.848,0.35,3.743,0.449,5.589,0.449
				c1.897,0,3.743-0.1,5.59-0.449c-0.15,3.893-0.35,8.583-0.35,13.073v12.425c0,4.092,0.199,9.582,0.299,12.426
				c-1.796-0.25-3.642-0.449-5.489-0.449c-1.846,0-3.791,0.249-5.639,0.449c0.2-3.145,0.45-6.737,0.45-10.13V11.977z"/>
			<path fill="#FFFFFF" d="M7.648,42.976c1.162,0,1.72-0.025,3.53-0.112c-0.104,0.46-0.133,0.935-0.133,1.397
				c0,0.474,0.028,0.936,0.133,1.397c-1.147-0.038-2.53-0.088-3.854-0.088H3.663c-1.207,0-2.824,0.05-3.663,0.075
				c0.074-0.449,0.134-0.911,0.134-1.372c0-0.462-0.074-0.949-0.134-1.409c0.927,0.05,1.986,0.112,2.986,0.112H7.648z"/>
			<path fill="#FFFFFF" d="M55.16,0.606h0.01V0h-2.829v0.019c-4.987,0.074-6.838,0.096-10.388,0.096H26.57
				c-3.302,0-6.795-0.063-9.853-0.114c0.193,0.47,0.438,0.964,0.438,1.435c0,0.47-0.194,0.939-0.438,1.396
				c2.766-0.026,8.104-0.077,12.083-0.077h12.086c3.934,0,8.021,0.041,11.562,0.078c0.024,2.9,0.051,6.614,0.051,9.592V24.85
				c0,4.491-0.05,9.181-0.087,13.074c0.456-0.35,0.912-0.449,1.379-0.449c0.456,0,0.924,0.099,1.379,0.449
				c-0.086-6.138-0.11-8.035-0.11-11.977V10.129C55.06,6.95,55.113,3.602,55.16,0.606z"/>
		</g>
		<g>
			<path fill="#FFFFFF" d="M72.341,46.732c0-0.825-0.038-1.66-0.077-2.485c0.48,0.029,0.969,0.047,1.448,0.047
				s0.971-0.047,1.45-0.047c2.245,0,3.167,1.2,3.167,3.176c0,2.562-1.978,3.445-3.493,3.445c-0.433,0-0.855-0.048-1.285-0.048
				c-0.433,0-0.854,0.019-1.287,0.048c0.039-0.826,0.077-1.66,0.077-2.486V46.732z M73.127,48.383c0,0.681,0.021,1.372,0.058,2.034
				c0.269,0.058,0.768,0.096,1.258,0.096c1.411,0,2.946-0.556,2.946-3.09c0-2.227-1.152-2.773-2.727-2.773
				c-0.565,0-1.084,0.047-1.478,0.096c-0.037,0.614-0.058,1.295-0.058,1.985V48.383z"/>
			<path fill="#FFFFFF" d="M80.199,44.122c0.269,0,0.49,0.222,0.49,0.491s-0.222,0.489-0.49,0.489c-0.268,0-0.489-0.22-0.489-0.489
				S79.932,44.122,80.199,44.122z M79.845,48.076c0-0.575-0.019-1.248-0.076-1.795c0.143,0.029,0.287,0.049,0.431,0.049
				c0.145,0,0.287-0.02,0.433-0.049c-0.058,0.547-0.078,1.22-0.078,1.795v0.999c0,0.575,0.021,1.247,0.078,1.794
				c-0.146-0.029-0.288-0.048-0.433-0.048c-0.144,0-0.288,0.019-0.431,0.048c0.058-0.548,0.076-1.22,0.076-1.794V48.076z"/>
			<path fill="#FFFFFF" d="M82.214,49.948c0.135,0.258,0.549,0.662,1.085,0.662c0.48,0,0.932-0.297,0.932-0.864
				c0-1.19-2.265-0.489-2.265-2.111c0-0.835,0.575-1.449,1.593-1.449c0.47,0,0.768,0.172,1.064,0.269
				c-0.105,0.183-0.212,0.537-0.229,0.681h-0.116c-0.096-0.307-0.412-0.594-0.844-0.594c-0.375,0-0.816,0.239-0.816,0.806
				c0,1.247,2.266,0.48,2.266,2.102c0,0.729-0.662,1.516-1.728,1.516c-0.585,0-0.968-0.162-1.239-0.317
				c0.078-0.163,0.184-0.509,0.184-0.7H82.214z"/>
			<path fill="#FFFFFF" d="M87.801,46.186c1.343,0,1.986,0.892,1.986,1.958c0,0.125-0.01,0.249-0.021,0.375
				c-0.691-0.009-1.372-0.029-2.054-0.029c-0.421,0-0.835,0.02-1.258,0.029c-0.008,0.096-0.008,0.183-0.008,0.268
				c0,0.999,0.594,1.776,1.659,1.776c0.509,0,1.104-0.298,1.44-0.682l0.047,0.029l-0.058,0.47c-0.384,0.307-1.007,0.585-1.603,0.585
				c-1.381,0-2.332-0.979-2.332-2.255C85.602,47.155,86.389,46.186,87.801,46.186z M86.477,48.152
				c0.393,0.011,0.844,0.029,1.246,0.029c0.424,0,0.873-0.019,1.276-0.029c0-0.681-0.183-1.659-1.18-1.659
				C86.878,46.493,86.523,47.462,86.477,48.152z"/>
			<path fill="#FFFFFF" d="M92.876,46.685c-0.892,0-1.295,0.576-1.295,1.574v0.816c0,0.575,0.02,1.247,0.076,1.794
				c-0.144-0.029-0.287-0.048-0.432-0.048c-0.144,0-0.288,0.019-0.431,0.048c0.056-0.548,0.076-1.22,0.076-1.794v-0.999
				c0-0.575-0.021-1.248-0.076-1.795c0.143,0.029,0.287,0.049,0.431,0.049c0.097,0,0.239-0.02,0.385-0.049
				c-0.021,0.26-0.029,0.509-0.029,0.769h0.02c0.354-0.547,0.843-0.864,1.535-0.864c0.709,0,1.535,0.346,1.535,1.67
				c0,0.547-0.038,1.123-0.038,1.775c0,0.423,0,0.825,0.019,1.238c-0.145-0.029-0.27-0.048-0.403-0.048s-0.259,0.019-0.394,0.048
				c0.02-0.701,0.067-1.401,0.067-2.14v-0.585C93.922,47.203,93.51,46.685,92.876,46.685z M91.159,45.217
				c0.076-0.451,0.383-0.989,0.997-0.989c0.221,0,0.346,0.049,0.701,0.222c0.354,0.172,0.47,0.221,0.633,0.221
				c0.297,0,0.47-0.23,0.547-0.48h0.279c-0.05,0.307-0.289,1.027-1.047,1.027c-0.183,0-0.394-0.058-0.691-0.221
				c-0.335-0.183-0.47-0.22-0.623-0.22c-0.298,0-0.395,0.105-0.509,0.44H91.159z"/>
			<path fill="#FFFFFF" d="M98.067,46.186c1.113,0,2.332,0.643,2.332,2.389c0,1.746-1.219,2.39-2.332,2.39s-2.332-0.644-2.332-2.39
				C95.735,46.829,96.954,46.186,98.067,46.186z M98.067,50.657c1.132,0,1.488-1.008,1.488-2.082s-0.356-2.082-1.488-2.082
				s-1.487,1.008-1.487,2.082S96.936,50.657,98.067,50.657z"/>
			<path fill="#FFFFFF" d="M109.841,45.418c-0.394-0.47-1.142-0.94-2.111-0.94c-1.593,0-2.811,0.949-2.811,3.08
				c0,1.881,1.055,3.032,2.859,3.032c0.546,0,1.21-0.105,1.535-0.307c0.01-0.384,0.019-0.768,0.019-1.161
				c0-0.451-0.027-0.912-0.048-1.315c0.126,0.029,0.308,0.049,0.461,0.049c0.144,0,0.288-0.01,0.412-0.049
				c-0.019,0.289-0.037,0.913-0.037,1.948c0,0.25,0.009,0.519,0.009,0.778c-0.547,0.191-1.697,0.46-2.446,0.46
				c-2.283,0-3.703-1.19-3.703-3.436c0-2.179,1.477-3.436,3.75-3.436c1.296,0,1.997,0.318,2.448,0.558
				c-0.097,0.173-0.192,0.499-0.222,0.739H109.841z"/>
			<path fill="#FFFFFF" d="M113.796,47.068c-0.067-0.076-0.28-0.153-0.471-0.153c-0.614,0-0.979,0.585-0.979,1.333
				c0,1.669,0,2.178,0.038,2.62c-0.125-0.029-0.259-0.048-0.384-0.048c-0.135,0-0.259,0.019-0.403,0.048
				c0.039-0.471,0.039-1.22,0.039-2.294v-0.307c0-0.5,0-1.161-0.039-1.987c0.145,0.029,0.269,0.049,0.403,0.049
				c0.125,0,0.259-0.02,0.384-0.049c-0.049,0.462-0.049,0.691-0.049,0.932l0.02,0.01c0.365-0.69,0.825-1.037,1.266-1.037
				c0.116,0,0.185,0.01,0.309,0.058c-0.068,0.153-0.068,0.517-0.068,0.777L113.796,47.068z"/>
			<path fill="#FFFFFF" d="M114.773,46.743c0.576-0.433,1.037-0.557,1.546-0.557c0.921,0,1.555,0.566,1.555,1.42
				c0,0.72-0.038,1.429-0.038,2.236c0,0.316,0,0.709,0.373,0.709c0.058,0,0.135,0,0.202-0.038v0.211
				c-0.135,0.058-0.364,0.135-0.614,0.135c-0.412,0-0.623-0.269-0.662-0.595c-0.462,0.46-0.854,0.701-1.506,0.701
				c-0.644,0-1.277-0.451-1.277-1.18c0-0.768,0.52-1.181,1.354-1.315c1.391-0.221,1.44-0.297,1.44-0.671
				c0-0.643-0.288-1.209-1.058-1.209c-0.508,0-0.987,0.24-1.208,0.652h-0.106V46.743z M117.146,48.45
				c-0.662,0.221-2.007,0.154-2.007,1.199c0,0.604,0.413,0.913,0.835,0.913c0.488,0,0.911-0.317,1.132-0.672L117.146,48.45z
				 M117.105,44.027c0.135-0.135,0.288-0.231,0.433-0.231c0.125,0,0.316,0.105,0.316,0.308c0,0.23-0.191,0.354-0.346,0.451
				l-1.41,0.902h-0.403L117.105,44.027z"/>
			<path fill="#FFFFFF" d="M121.625,44.401c-0.153-0.096-0.336-0.145-0.527-0.145c-0.566,0-0.787,0.461-0.787,0.96
				c0,0.231,0.059,0.729,0.116,1.123c0.325,0,0.662-0.009,0.987-0.009c-0.009,0.067-0.019,0.134-0.019,0.191
				c0,0.067,0.01,0.134,0.019,0.192c-0.325-0.009-0.662-0.029-0.987-0.029c0,1.392,0,2.773,0.037,4.185
				c-0.135-0.029-0.277-0.048-0.412-0.048c-0.134,0-0.278,0.019-0.422,0.048c0.087-1.411,0.087-2.784,0.087-4.185
				c-0.23,0-0.461,0.02-0.691,0.029c0.01-0.058,0.02-0.125,0.02-0.192c0-0.058-0.01-0.124-0.02-0.191
				c0.23,0,0.471,0.009,0.691,0.009c0-0.748,0.326-1.813,0.834-2.323c0.23-0.23,0.614-0.44,0.979-0.44
				c0.058,0,0.135,0.009,0.192,0.028c-0.01,0.26-0.039,0.518-0.039,0.769L121.625,44.401z M122.864,44.122
				c0.269,0,0.489,0.222,0.489,0.491s-0.221,0.489-0.489,0.489c-0.27,0-0.49-0.22-0.49-0.489S122.595,44.122,122.864,44.122z
				 M122.509,48.076c0-0.575-0.02-1.248-0.077-1.795c0.145,0.029,0.288,0.049,0.433,0.049c0.143,0,0.287-0.02,0.431-0.049
				c-0.057,0.547-0.077,1.22-0.077,1.795v0.999c0,0.575,0.021,1.247,0.077,1.794c-0.144-0.029-0.288-0.048-0.431-0.048
				c-0.145,0-0.288,0.019-0.433,0.048c0.058-0.548,0.077-1.22,0.077-1.794V48.076z"/>
			<path fill="#FFFFFF" d="M126.933,46.186c0.7,0,1.306,0.201,1.545,0.422c-0.087,0.191-0.164,0.403-0.211,0.633h-0.077
				c-0.184-0.326-0.624-0.748-1.229-0.748c-1.161,0-1.631,0.893-1.631,2.073c0,1.314,0.595,1.997,1.66,1.997
				c0.509,0,1.103-0.298,1.439-0.682l0.048,0.029c-0.028,0.154-0.048,0.317-0.058,0.47c-0.385,0.307-1.008,0.585-1.604,0.585
				c-1.113,0-2.332-0.673-2.332-2.39C124.484,46.916,125.703,46.186,126.933,46.186z"/>
			<path fill="#FFFFFF" d="M131.549,46.186c1.112,0,2.331,0.643,2.331,2.389c0,1.746-1.219,2.39-2.331,2.39
				c-1.114,0-2.332-0.644-2.332-2.39C129.217,46.829,130.435,46.186,131.549,46.186z M131.549,50.657
				c1.131,0,1.486-1.008,1.486-2.082s-0.355-2.082-1.486-2.082c-1.133,0-1.488,1.008-1.488,2.082S130.416,50.657,131.549,50.657z"/>
		</g>
	</g>
</g>
</svg>
